#N canvas 0 50 1366 686 10;
#N canvas 604 132 326 419 volca_sync 1;
#X obj 108 153 tgl 15 0 empty empty empty 17 7 0 10 -262144 -1 -1 0
1;
#X obj 108 203 metro 500;
#X obj 149 263 delay 15;
#X obj 108 327 line \$1 0;
#X msg 108 292 1;
#X msg 149 293 0;
#X obj 108 383 dac~;
#X obj 108 230 bng 15 250 50 0 empty empty empty 17 7 0 10 -262144
-1 -1;
#X obj 159 117 expr 60000/ $f1;
#X floatatom 159 139 5 0 0 0 - - -, f 5;
#X floatatom 159 60 5 0 0 0 - tempo -, f 5;
#X obj 211 9 loadbang;
#X msg 211 56 120;
#X floatatom 129 359 5 0 0 0 - - -, f 5;
#X obj 108 124 bng 15 250 50 0 empty play empty 17 7 0 10 -4034 -1
-1;
#X obj 159 167 / 2;
#X obj 54 194 bng 15 250 50 0 empty step empty 17 7 0 10 -260097 -1
-1;
#X obj 230 33 bng 15 250 50 0 empty default_tempo empty 17 7 0 10 -159808
-1 -1;
#X floatatom 195 96 5 0 0 0 - - tempo_display, f 5;
#X connect 0 0 1 0;
#X connect 1 0 7 0;
#X connect 2 0 5 0;
#X connect 3 0 6 0;
#X connect 3 0 13 0;
#X connect 4 0 3 0;
#X connect 5 0 3 0;
#X connect 7 0 2 0;
#X connect 7 0 4 0;
#X connect 8 0 9 0;
#X connect 9 0 15 0;
#X connect 10 0 8 0;
#X connect 10 0 18 0;
#X connect 11 0 12 0;
#X connect 12 0 8 0;
#X connect 12 0 18 0;
#X connect 14 0 0 0;
#X connect 15 0 1 1;
#X connect 16 0 7 0;
#X connect 17 0 12 0;
#X restore 452 131 pd volca_sync;
#X obj 121 118 bng 60 250 50 0 play empty Play 0 -7 0 10 -4034 -1 -1
;
#X obj 121 203 bng 60 250 50 0 step empty Step 0 -7 0 10 -260097 -1
-1;
#X obj 201 120 vsl 60 140 0 255 0 0 tempo empty Tempo 0 -9 0 10 -262144
-1 -1 7000 1;
#X obj 281 118 bng 60 250 50 0 default_tempo empty 120_BPM 0 -7 0 10
-159808 -1 -1;
#X text 284 211 Author : Michel Didier Joomun License : GPL v2;
#X floatatom 282 248 5 0 0 0 - tempo_display -, f 5;
#X text 284 191 Volca series sync using PC sound card / Smartphone
;
